<svg xmlns="http://www.w3.org/2000/svg" width="40" height="40" viewBox="0 0 40 40">
  <g id="Group_5" data-name="Group 5" transform="translate(-369 -4248)">
    <g id="Group_4" data-name="Group 4" transform="translate(155 -15)">
      <circle id="Ellipse_2" data-name="Ellipse 2" cx="20" cy="20" r="20" transform="translate(214 4263)" fill="#222"/>
    </g>
    <path id="instagram" d="M16.821,0H5.176A5.191,5.191,0,0,0,0,5.176V16.821A5.191,5.191,0,0,0,5.176,22H16.821A5.191,5.191,0,0,0,22,16.821V5.176A5.191,5.191,0,0,0,16.821,0ZM20.7,16.821A3.886,3.886,0,0,1,16.821,20.7H5.176a3.886,3.886,0,0,1-3.882-3.882V9.057h4.15a6.07,6.07,0,0,0-.591,2.588,6.146,6.146,0,1,0,12.292,0,6.07,6.07,0,0,0-.591-2.588H20.7ZM15.85,11.645A4.852,4.852,0,1,1,11,6.793,4.857,4.857,0,0,1,15.85,11.645Zm-.127-3.882a6.063,6.063,0,0,0-9.451,0H1.294V5.176A3.886,3.886,0,0,1,5.176,1.294H16.821A3.886,3.886,0,0,1,20.7,5.176V7.763ZM18.7,3.522V5.2a.7.7,0,0,1-.7.7h-1.77a.706.706,0,0,1-.7-.7V3.522a.7.7,0,0,1,.7-.7H18a.7.7,0,0,1,.7.7Z" transform="translate(378.002 4257)" fill="#fffcf2"/>
  </g>
</svg>
